<svg width="0" height="0" class="hidden">
  <symbol xmlnsRdf="http://www.w3.org/1999/02/22-rdf-syntax-ns#" xmlns="http://www.w3.org/2000/svg" xmlnsCc="http://creativecommons.org/ns#" xmlns:xlink="http://www.w3.org/1999/xlink" xmlnsDc="http://purl.org/dc/elements/1.1/" xmlnsSvg="http://www.w3.org/2000/svg" xmlnsInkscape="http://www.inkscape.org/namespaces/inkscape" xmlnsSodipodi="http://sodipodi.sourceforge.net/DTD/sodipodi-0.dtd" xmlnsNs1="http://sozi.baierouge.fr" id="Computer-598" version="1.1" viewBox="0 0 256 256">
    <defs id="defs4">
      <linearGradient id="linearGradient3001">
        <stop id="stop3003" stop-color="#ffe6d5" offset="0"></stop>
        <stop id="stop3005" stop-color="#e9c6af" offset="1"></stop>
      </linearGradient>
      <filter id="filter3793" color-interpolation-filters="sRGB">
        <feGaussianBlur id="feGaussianBlur3795" stdDeviation="1.5378812"></feGaussianBlur>
      </filter>
      <linearGradient id="linearGradient4205" y2="309.39" xlink:href="#linearGradient3001" gradientUnits="userSpaceOnUse" x2="309.1" gradientTransform="matrix(.76737 0 0 .76737 16.961 827.37)" y1="309.39" x1="198.5"></linearGradient>
      <linearGradient id="linearGradient4207" y2="303.08" xlink:href="#linearGradient3001" gradientUnits="userSpaceOnUse" x2="397.86" gradientTransform="matrix(.76737 0 0 .76737 20.804 827.37)" y1="59.505" x1="97.857"></linearGradient>
      <linearGradient id="linearGradient4209" y2="337.93" xlink:href="#linearGradient3001" gradientUnits="userSpaceOnUse" x2="389.91" gradientTransform="matrix(.76737 0 0 .76737 14.636 827.37)" y1="337.93" x1="123.75"></linearGradient>
    </defs>
    <g id="layer1" transform="translate(0 -796.36)">
      <g id="g4073" transform="translate(-82.833 -70.711)">
        <path id="rect4047" d="m175.7 1041.5h72.046c3.3402 0 6.0293 2.6891 6.0293 6.0293v34.451c0 3.3402-2.6891 6.0293-6.0293 6.0293h-72.046c-3.3402 0-6.0293-2.6891-6.0293-6.0293v-34.451c0-3.3402 2.6891-6.0293 6.0293-6.0293z" fill-rule="evenodd" stroke="#540" stroke-width=".76737px" fill="url(#linearGradient4205)"></path>
        <path id="rect2999" d="m106.96 892.8h209.52c4.1756 0 7.5372 3.3616 7.5372 7.5372v142.88c0 4.1757-3.3616 7.5373-7.5372 7.5373h-209.52c-4.1756 0-7.5372-3.3616-7.5372-7.5373v-142.88c0-4.1756 3.3616-7.5372 7.5372-7.5372z" fill-rule="evenodd" stroke="#540" stroke-width=".95881px" fill="url(#linearGradient4207)"></path>
        <path id="rect2997" d="m127.83 908.6h167.78c3.3402 0 6.0293 2.6891 6.0293 6.0293v114.29c0 3.3403-2.6891 6.0294-6.0293 6.0294h-167.78c-3.3402 0-6.0293-2.6891-6.0293-6.0294v-114.29c0-3.3402 2.6891-6.0293 6.0293-6.0293z" stroke="#000" stroke-width=".76737px" fill-rule="evenodd"></path>
        <g id="text2985" fill="#0f0" transform="matrix(.76737 0 0 .76737 20.804 829.37)">
          <path id="path3923" d="m147.3 139.67h2.2953v-2.2954h-1.1477v1.1477h-1.1477zm5.7384 0v1.1477h-1.1477v3.443h1.1477v1.1477h-4.5907v-1.1477h1.1477v-3.443h-4.5907v-2.2954h1.1477v-1.1477h1.1477v-1.1477h1.1477v-1.1477h1.1477v-1.1477h2.2954v5.7384z"></path>
          <path id="path3925" d="m161.07 135.08h-3.443v3.443h3.443zm0 4.5907h-3.443v4.5907h3.443zm-5.7384 0h1.1477v-1.1477h-1.1477v-3.443h1.1477v-1.1477h5.7384v1.1477h1.1477v3.443h-1.1477v1.1477h1.1477v4.5907h-1.1477v1.1477h-5.7384v-1.1477h-1.1477z"></path>
          <path id="path3927" d="m178.28 139.67h2.2954v-2.2954h-1.1477v1.1477h-1.1477zm5.7384 0v1.1477h-1.1477v3.443h1.1477v1.1477h-4.5907v-1.1477h1.1477v-3.443h-4.5907v-2.2954h1.1477v-1.1477h1.1477v-1.1477h1.1477v-1.1477h1.1477v-1.1477h2.2953v5.7384z"></path>
          <path id="path3929" d="m188.61 138.52h4.5907v1.1477h1.1477v4.5907h-1.1477v1.1477h-5.7384v-1.1477h-1.1477v-1.1477h2.2954v1.1477h3.443v-4.5907h-5.7384v-5.7384h8.0337v1.1477h-5.7384z"></path>
          <path id="path3931" d="m209.27 139.67h2.2954v-2.2954h-1.1477v1.1477h-1.1477zm5.7384 0v1.1477h-1.1477v3.443h1.1477v1.1477h-4.5907v-1.1477h1.1477v-3.443h-4.5907v-2.2954h1.1477v-1.1477h1.1477v-1.1477h1.1477v-1.1477h1.1477v-1.1477h2.2953v5.7384z"></path>
          <path id="path3933" d="m223.04 135.08h-2.2953v1.1477h-1.1477v6.886h1.1477v1.1477h2.2953v-1.1477h1.1477v-1.1477h1.1477v2.2954h-1.1477v1.1477h-4.5907v-1.1477h-1.1477v-1.1477h-1.1477v-6.886h1.1477v-1.1477h1.1477v-1.1477h4.5907v1.1477h1.1477v2.2953h-1.1477v-1.1477h-1.1477z"></path>
          <path id="path3935" d="m240.26 139.67h2.2954v-2.2954h-1.1477v1.1477h-1.1477zm5.7384 0v1.1477h-1.1477v3.443h1.1477v1.1477h-4.5907v-1.1477h1.1477v-3.443h-4.5907v-2.2954h1.1477v-1.1477h1.1477v-1.1477h1.1477v-1.1477h1.1477v-1.1477h2.2953v5.7384z"></path>
          <path id="path3937" d="m254.03 135.08h-2.2954v1.1477h-1.1477v6.886h1.1477v1.1477h2.2954v-1.1477h1.1477v-1.1477h1.1477v2.2954h-1.1477v1.1477h-4.5907v-1.1477h-1.1477v-1.1477h-1.1477v-6.886h1.1477v-1.1477h1.1477v-1.1477h4.5907v1.1477h1.1477v2.2953h-1.1477v-1.1477h-1.1477z"></path>
          <path id="path3939" d="m271.24 139.67h2.2954v-2.2954h-1.1477v1.1477h-1.1477zm5.7384 0v1.1477h-1.1477v3.443h1.1477v1.1477h-4.5907v-1.1477h1.1477v-3.443h-4.5907v-2.2954h1.1477v-1.1477h1.1477v-1.1477h1.1477v-1.1477h1.1477v-1.1477h2.2953v5.7384z"></path>
          <path id="path3941" d="m286.16 136.23h-1.1477v-1.1477h-2.2954v3.443h1.1477v-1.1477h1.1477v3.443h-1.1477v-1.1477h-1.1477v4.5907h1.1477v1.1477h-4.5907v-1.1477h1.1477v-9.1814h-1.1477v-1.1477h8.0337v3.443h-1.1477z"></path>
          <path id="path3943" d="m299.94 141.96h1.1477v-1.1477h1.1477v-1.1477h1.1477v-1.1477h1.1477v-1.1477h1.1477v-2.2953h-3.443v1.1477h-2.2954v-1.1477h1.1477v-1.1477h5.7384v1.1477h1.1477v2.2953h-1.1477v1.1477h-1.1477v1.1477h-1.1477v1.1477h-1.1477v1.1477h-1.1477v2.2954h3.443v-1.1477h2.2954v2.2954h-8.0337z"></path>
          <path id="path3945" d="m313.71 138.52h1.1477v2.2954h-1.1477zm1.1477 4.5907h1.1477v-6.886h-1.1477v-1.1477h-1.1477v1.1477h-1.1477v6.886h1.1477v1.1477h1.1477zm-2.2954 1.1477h-1.1477v-1.1477h-1.1477v-6.886h1.1477v-1.1477h1.1477v-1.1477h3.443v1.1477h1.1477v1.1477h1.1477v6.886h-1.1477v1.1477h-1.1477v1.1477h-3.443z"></path>
          <path id="path3947" d="m333.22 138.52h4.5907v1.1477h1.1477v4.5907h-1.1477v1.1477h-5.7384v-1.1477h-1.1477v-1.1477h2.2953v1.1477h3.443v-4.5907h-5.7384v-5.7384h8.0337v1.1477h-5.7384z"></path>
          <path id="path3949" d="m343.55 140.82h1.1477v-1.1477h1.1477v-1.1477h1.1477v-3.443h-3.443v1.1477h-2.2953v-2.2954h8.0337v4.5907h-1.1477v1.1477h-1.1477v1.1477h-1.1477v4.5907h-2.2954z"></path>
          <path id="path3951" d="m147.3 162.62h2.2953v-2.2954h-1.1477v1.1477h-1.1477zm5.7384 0v1.1477h-1.1477v3.443h1.1477v1.1477h-4.5907v-1.1477h1.1477v-3.443h-4.5907v-2.2954h1.1477v-1.1477h1.1477v-1.1477h1.1477v-1.1477h1.1477v-1.1477h2.2954v5.7384z"></path>
          <path id="path3953" d="m162.22 159.18h-1.1477v-1.1477h-2.2954v3.443h1.1477v-1.1477h1.1477v3.443h-1.1477v-1.1477h-1.1477v4.5907h1.1477v1.1477h-4.5907v-1.1477h1.1477v-9.1814h-1.1477v-1.1477h8.0337v3.443h-1.1477z"></path>
          <path id="path3955" d="m178.28 161.48h4.5907v1.1477h1.1477v4.5907h-1.1477v1.1477h-5.7384v-1.1477h-1.1477v-1.1477h2.2953v1.1477h3.443v-4.5907h-5.7384v-5.7384h8.0337v1.1477h-5.7384z"></path>
          <path id="path3957" d="m186.32 164.92h1.1477v-1.1477h1.1477v-1.1477h1.1477v-1.1477h1.1477v-1.1477h1.1477v-2.2953h-3.443v1.1477h-2.2954v-1.1477h1.1477v-1.1477h5.7384v1.1477h1.1477v2.2953h-1.1477v1.1477h-1.1477v1.1477h-1.1477v1.1477h-1.1477v1.1477h-1.1477v2.2954h3.443v-1.1477h2.2954v2.2954h-8.0337z"></path>
          <path id="path3959" d="m209.27 162.62h2.2954v-2.2954h-1.1477v1.1477h-1.1477zm5.7384 0v1.1477h-1.1477v3.443h1.1477v1.1477h-4.5907v-1.1477h1.1477v-3.443h-4.5907v-2.2954h1.1477v-1.1477h1.1477v-1.1477h1.1477v-1.1477h1.1477v-1.1477h2.2953v5.7384z"></path>
          <path id="path3961" d="m223.04 158.03h-2.2953v1.1477h-1.1477v6.886h1.1477v1.1477h2.2953v-1.1477h1.1477v-1.1477h1.1477v2.2954h-1.1477v1.1477h-4.5907v-1.1477h-1.1477v-1.1477h-1.1477v-6.886h1.1477v-1.1477h1.1477v-1.1477h4.5907v1.1477h1.1477v2.2953h-1.1477v-1.1477h-1.1477z"></path>
          <path id="path3963" d="m240.26 162.62h2.2954v-2.2954h-1.1477v1.1477h-1.1477zm5.7384 0v1.1477h-1.1477v3.443h1.1477v1.1477h-4.5907v-1.1477h1.1477v-3.443h-4.5907v-2.2954h1.1477v-1.1477h1.1477v-1.1477h1.1477v-1.1477h1.1477v-1.1477h2.2953v5.7384z"></path>
          <path id="path3965" d="m250.59 162.62h2.2954v-2.2954h-1.1477v1.1477h-1.1477zm5.7384 0v1.1477h-1.1477v3.443h1.1477v1.1477h-4.5907v-1.1477h1.1477v-3.443h-4.5907v-2.2954h1.1477v-1.1477h1.1477v-1.1477h1.1477v-1.1477h1.1477v-1.1477h2.2953v5.7384z"></path>
          <path id="path3967" d="m268.95 164.92h1.1477v-1.1477h1.1477v-1.1477h1.1477v-1.1477h1.1477v-1.1477h1.1477v-2.2953h-3.443v1.1477h-2.2953v-1.1477h1.1477v-1.1477h5.7384v1.1477h1.1477v2.2953h-1.1477v1.1477h-1.1477v1.1477h-1.1477v1.1477h-1.1477v1.1477h-1.1477v2.2954h3.443v-1.1477h2.2954v2.2954h-8.0337z"></path>
          <path id="path3969" d="m282.72 161.48h1.1477v2.2954h-1.1477zm1.1477 4.5907h1.1477v-6.886h-1.1477v-1.1477h-1.1477v1.1477h-1.1477v6.886h1.1477v1.1477h1.1477zm-2.2953 1.1477h-1.1477v-1.1477h-1.1477v-6.886h1.1477v-1.1477h1.1477v-1.1477h3.443v1.1477h1.1477v1.1477h1.1477v6.886h-1.1477v1.1477h-1.1477v1.1477h-3.443z"></path>
          <path id="path3971" d="m302.23 161.48h4.5907v1.1477h1.1477v4.5907h-1.1477v1.1477h-5.7384v-1.1477h-1.1477v-1.1477h2.2954v1.1477h3.443v-4.5907h-5.7384v-5.7384h8.0337v1.1477h-5.7384z"></path>
          <path id="path3973" d="m312.56 162.62h2.2954v-2.2954h-1.1477v1.1477h-1.1477zm5.7384 0v1.1477h-1.1477v3.443h1.1477v1.1477h-4.5907v-1.1477h1.1477v-3.443h-4.5907v-2.2954h1.1477v-1.1477h1.1477v-1.1477h1.1477v-1.1477h1.1477v-1.1477h2.2953v5.7384z"></path>
          <path id="path3975" d="m333.22 162.62h2.2954v-2.2954h-1.1477v1.1477h-1.1477zm5.7384 0v1.1477h-1.1477v3.443h1.1477v1.1477h-4.5907v-1.1477h1.1477v-3.443h-4.5907v-2.2954h1.1477v-1.1477h1.1477v-1.1477h1.1477v-1.1477h1.1477v-1.1477h2.2953v5.7384z"></path>
          <path id="path3977" d="m346.99 158.03h-3.443v3.443h3.443zm0 4.5907h-3.443v4.5907h3.443zm-5.7384 0h1.1477v-1.1477h-1.1477v-3.443h1.1477v-1.1477h5.7384v1.1477h1.1477v3.443h-1.1477v1.1477h1.1477v4.5907h-1.1477v1.1477h-5.7384v-1.1477h-1.1477z"></path>
          <path id="path3979" d="m147.3 185.58h2.2953v-2.2954h-1.1477v1.1477h-1.1477zm5.7384 0v1.1477h-1.1477v3.443h1.1477v1.1477h-4.5907v-1.1477h1.1477v-3.443h-4.5907v-2.2954h1.1477v-1.1477h1.1477v-1.1477h1.1477v-1.1477h1.1477v-1.1477h2.2954v5.7384z"></path>
          <path id="path3981" d="m156.48 190.17h4.5907v1.1477h-4.5907zm1.1477-5.7384h3.443v-3.443h-3.443zm2.2953 4.5907h1.1477v-3.443h-4.5907v-1.1477h-1.1477v-3.443h1.1477v-1.1477h5.7384v1.1477h1.1477v8.0337h-1.1477v1.1477h-2.2954z"></path>
          <path id="path3983" d="m178.28 184.43h4.5907v1.1477h1.1477v4.5907h-1.1477v1.1477h-5.7384v-1.1477h-1.1477v-1.1477h2.2953v1.1477h3.443v-4.5907h-5.7384v-5.7384h8.0337v1.1477h-5.7384z"></path>
          <path id="path3985" d="m188.61 184.43h3.443v-3.443h-3.443v1.1477h-2.2954v-1.1477h1.1477v-1.1477h5.7384v1.1477h1.1477v3.443h-1.1477v1.1477h1.1477v4.5907h-1.1477v1.1477h-5.7384v-1.1477h-1.1477v-1.1477h2.2954v1.1477h3.443v-4.5907h-3.443z"></path>
          <path id="path3987" d="m206.97 187.87h1.1477v-1.1477h1.1477v-1.1477h1.1477v-1.1477h1.1477v-1.1477h1.1477v-2.2953h-3.443v1.1477h-2.2953v-1.1477h1.1477v-1.1477h5.7384v1.1477h1.1477v2.2953h-1.1477v1.1477h-1.1477v1.1477h-1.1477v1.1477h-1.1477v1.1477h-1.1477v2.2954h3.443v-1.1477h2.2954v2.2954h-8.0337z"></path>
          <path id="path3989" d="m220.75 184.43h1.1477v2.2954h-1.1477zm1.1477 4.5907h1.1477v-6.886h-1.1477v-1.1477h-1.1477v1.1477h-1.1477v6.886h1.1477v1.1477h1.1477zm-2.2954 1.1477h-1.1477v-1.1477h-1.1477v-6.886h1.1477v-1.1477h1.1477v-1.1477h3.443v1.1477h1.1477v1.1477h1.1477v6.886h-1.1477v1.1477h-1.1477v1.1477h-3.443z"></path>
          <path id="path3991" d="m240.26 185.58h2.2954v-2.2954h-1.1477v1.1477h-1.1477zm5.7384 0v1.1477h-1.1477v3.443h1.1477v1.1477h-4.5907v-1.1477h1.1477v-3.443h-4.5907v-2.2954h1.1477v-1.1477h1.1477v-1.1477h1.1477v-1.1477h1.1477v-1.1477h2.2953v5.7384z"></path>
          <path id="path3993" d="m249.44 190.17h4.5907v1.1477h-4.5907zm1.1477-5.7384h3.443v-3.443h-3.443zm2.2954 4.5907h1.1477v-3.443h-4.5907v-1.1477h-1.1477v-3.443h1.1477v-1.1477h5.7384v1.1477h1.1477v8.0337h-1.1477v1.1477h-2.2953z"></path>
          <path id="path3995" d="m271.24 184.43h4.5907v1.1477h1.1477v4.5907h-1.1477v1.1477h-5.7384v-1.1477h-1.1477v-1.1477h2.2953v1.1477h3.443v-4.5907h-5.7384v-5.7384h8.0337v1.1477h-5.7384z"></path>
          <path id="path3997" d="m281.57 184.43h3.443v-3.443h-3.443v1.1477h-2.2954v-1.1477h1.1477v-1.1477h5.7384v1.1477h1.1477v3.443h-1.1477v1.1477h1.1477v4.5907h-1.1477v1.1477h-5.7384v-1.1477h-1.1477v-1.1477h2.2954v1.1477h3.443v-4.5907h-3.443z"></path>
          <path id="path3999" d="m299.94 187.87h1.1477v-1.1477h1.1477v-1.1477h1.1477v-1.1477h1.1477v-1.1477h1.1477v-2.2953h-3.443v1.1477h-2.2954v-1.1477h1.1477v-1.1477h5.7384v1.1477h1.1477v2.2953h-1.1477v1.1477h-1.1477v1.1477h-1.1477v1.1477h-1.1477v1.1477h-1.1477v2.2954h3.443v-1.1477h2.2954v2.2954h-8.0337z"></path>
          <path id="path4001" d="m313.71 184.43h1.1477v2.2954h-1.1477zm1.1477 4.5907h1.1477v-6.886h-1.1477v-1.1477h-1.1477v1.1477h-1.1477v6.886h1.1477v1.1477h1.1477zm-2.2954 1.1477h-1.1477v-1.1477h-1.1477v-6.886h1.1477v-1.1477h1.1477v-1.1477h3.443v1.1477h1.1477v1.1477h1.1477v6.886h-1.1477v1.1477h-1.1477v1.1477h-3.443z"></path>
          <path id="path4003" d="m333.22 185.58h2.2954v-2.2954h-1.1477v1.1477h-1.1477zm5.7384 0v1.1477h-1.1477v3.443h1.1477v1.1477h-4.5907v-1.1477h1.1477v-3.443h-4.5907v-2.2954h1.1477v-1.1477h1.1477v-1.1477h1.1477v-1.1477h1.1477v-1.1477h2.2953v5.7384z"></path>
          <path id="path4005" d="m346.99 182.13h-1.1477v-1.1477h-1.1477v9.1814h1.1477v-1.1477h1.1477zm0 8.0337v1.1477h-5.7384v-1.1477h1.1477v-9.1814h-1.1477v-1.1477h5.7384v1.1477h1.1477v1.1477h1.1477v6.886h-1.1477v1.1477z"></path>
          <path id="path4007" d="m147.3 207.38h4.5907v1.1477h1.1477v4.5907h-1.1477v1.1477h-5.7384v-1.1477h-1.1477v-1.1477h2.2954v1.1477h3.443v-4.5907h-5.7384v-5.7384h8.0337v1.1477h-5.7384z"></path>
          <path id="path4009" d="m156.48 213.12h4.5907v1.1477h-4.5907zm1.1477-5.7384h3.443v-3.443h-3.443zm2.2953 4.5907h1.1477v-3.443h-4.5907v-1.1477h-1.1477v-3.443h1.1477v-1.1477h5.7384v1.1477h1.1477v8.0337h-1.1477v1.1477h-2.2954z"></path>
          <path id="path4011" d="m175.99 210.83h1.1477v-1.1477h1.1477v-1.1477h1.1477v-1.1477h1.1477v-1.1477h1.1477v-2.2953h-3.443v1.1477h-2.2953v-1.1477h1.1477v-1.1477h5.7384v1.1477h1.1477v2.2953h-1.1477v1.1477h-1.1477v1.1477h-1.1477v1.1477h-1.1477v1.1477h-1.1477v2.2954h3.443v-1.1477h2.2954v2.2953h-8.0337z"></path>
          <path id="path4013" d="m189.76 207.38h1.1477v2.2953h-1.1477zm1.1477 4.5907h1.1477v-6.886h-1.1477v-1.1477h-1.1477v1.1477h-1.1477v6.886h1.1477v1.1477h1.1477zm-2.2953 1.1477h-1.1477v-1.1477h-1.1477v-6.886h1.1477v-1.1477h1.1477v-1.1477h3.443v1.1477h1.1477v1.1477h1.1477v6.886h-1.1477v1.1477h-1.1477v1.1477h-3.443z"></path>
          <path id="path4015" d="m209.27 208.53h2.2954v-2.2954h-1.1477v1.1477h-1.1477zm5.7384 0v1.1477h-1.1477v3.443h1.1477v1.1477h-4.5907v-1.1477h1.1477v-3.443h-4.5907v-2.2953h1.1477v-1.1477h1.1477v-1.1477h1.1477v-1.1477h1.1477v-1.1477h2.2953v5.7384z"></path>
          <path id="path4017" d="m219.6 207.38h3.443v-3.443h-3.443v1.1477h-2.2953v-1.1477h1.1477v-1.1477h5.7384v1.1477h1.1477v3.443h-1.1477v1.1477h1.1477v4.5907h-1.1477v1.1477h-5.7384v-1.1477h-1.1477v-1.1477h2.2953v1.1477h3.443v-4.5907h-3.443z"></path>
          <path id="path4019" d="m240.26 208.53h2.2954v-2.2954h-1.1477v1.1477h-1.1477zm5.7384 0v1.1477h-1.1477v3.443h1.1477v1.1477h-4.5907v-1.1477h1.1477v-3.443h-4.5907v-2.2953h1.1477v-1.1477h1.1477v-1.1477h1.1477v-1.1477h1.1477v-1.1477h2.2953v5.7384z"></path>
          <path id="path4021" d="m255.18 205.09h-1.1477v-1.1477h-2.2954v3.443h1.1477v-1.1477h1.1477v3.443h-1.1477v-1.1477h-1.1477v4.5907h1.1477v1.1477h-4.5907v-1.1477h1.1477v-9.1814h-1.1477v-1.1477h8.0337v3.443h-1.1477z"></path>
          <path id="path4023" d="m271.24 208.53h2.2954v-2.2954h-1.1477v1.1477h-1.1477zm5.7384 0v1.1477h-1.1477v3.443h1.1477v1.1477h-4.5907v-1.1477h1.1477v-3.443h-4.5907v-2.2953h1.1477v-1.1477h1.1477v-1.1477h1.1477v-1.1477h1.1477v-1.1477h2.2953v5.7384z"></path>
          <path id="path4025" d="m285.02 205.09h-1.1477v-1.1477h-1.1477v9.1814h1.1477v-1.1477h1.1477zm0 8.0337v1.1477h-5.7384v-1.1477h1.1477v-9.1814h-1.1477v-1.1477h5.7384v1.1477h1.1477v1.1477h1.1477v6.886h-1.1477v1.1477z"></path>
          <path id="path4027" d="m302.23 207.38h4.5907v1.1477h1.1477v4.5907h-1.1477v1.1477h-5.7384v-1.1477h-1.1477v-1.1477h2.2954v1.1477h3.443v-4.5907h-5.7384v-5.7384h8.0337v1.1477h-5.7384z"></path>
          <path id="path4029" d="m313.71 207.38h1.1477v2.2953h-1.1477zm1.1477 4.5907h1.1477v-6.886h-1.1477v-1.1477h-1.1477v1.1477h-1.1477v6.886h1.1477v1.1477h1.1477zm-2.2954 1.1477h-1.1477v-1.1477h-1.1477v-6.886h1.1477v-1.1477h1.1477v-1.1477h3.443v1.1477h1.1477v1.1477h1.1477v6.886h-1.1477v1.1477h-1.1477v1.1477h-3.443z"></path>
          <path id="path4031" d="m333.22 207.38h4.5907v1.1477h1.1477v4.5907h-1.1477v1.1477h-5.7384v-1.1477h-1.1477v-1.1477h2.2953v1.1477h3.443v-4.5907h-5.7384v-5.7384h8.0337v1.1477h-5.7384z"></path>
          <path id="path4033" d="m343.55 207.38h4.5907v1.1477h1.1477v4.5907h-1.1477v1.1477h-5.7384v-1.1477h-1.1477v-1.1477h2.2953v1.1477h3.443v-4.5907h-5.7384v-5.7384h8.0337v1.1477h-5.7384z"></path>
          <path id="path4035" d="m147.3 230.34h4.5907v1.1477h1.1477v4.5907h-1.1477v1.1477h-5.7384v-1.1477h-1.1477v-1.1477h2.2954v1.1477h3.443v-4.5907h-5.7384v-5.7384h8.0337v1.1477h-5.7384z"></path>
          <path id="path4037" d="m157.62 231.48h2.2953v-2.2954h-1.1477v1.1477h-1.1477zm5.7384 0v1.1477h-1.1477v3.443h1.1477v1.1477h-4.5907v-1.1477h1.1477v-3.443h-4.5907v-2.2953h1.1477v-1.1477h1.1477v-1.1477h1.1477v-1.1477h1.1477v-1.1477h2.2954v5.7384z"></path>
          <path id="path4039" d="m178.28 231.48h2.2954v-2.2954h-1.1477v1.1477h-1.1477zm5.7384 0v1.1477h-1.1477v3.443h1.1477v1.1477h-4.5907v-1.1477h1.1477v-3.443h-4.5907v-2.2953h1.1477v-1.1477h1.1477v-1.1477h1.1477v-1.1477h1.1477v-1.1477h2.2953v5.7384z"></path>
          <path id="path4041" d="m188.61 230.34h4.5907v1.1477h1.1477v4.5907h-1.1477v1.1477h-5.7384v-1.1477h-1.1477v-1.1477h2.2954v1.1477h3.443v-4.5907h-5.7384v-5.7384h8.0337v1.1477h-5.7384z"></path>
          <path id="path4043" d="m209.27 230.34h4.5907v1.1477h1.1477v4.5907h-1.1477v1.1477h-5.7384v-1.1477h-1.1477v-1.1477h2.2953v1.1477h3.443v-4.5907h-5.7384v-5.7384h8.0337v1.1477h-5.7384z"></path>
          <path id="path4045" d="m217.3 233.78h1.1477v-1.1477h1.1477v-1.1477h1.1477v-1.1477h1.1477v-1.1477h1.1477v-2.2953h-3.443v1.1477h-2.2953v-1.1477h1.1477v-1.1477h5.7384v1.1477h1.1477v2.2953h-1.1477v1.1477h-1.1477v1.1477h-1.1477v1.1477h-1.1477v1.1477h-1.1477v2.2954h3.443v-1.1477h2.2954v2.2953h-8.0337z"></path>
        </g>
        <g id="text3777" filter="url(#filter3793)" transform="matrix(.76737 0 0 .76737 20.804 829.37)" fill="#0f0">
          <path id="path3798" d="m147.3 139.67h2.2953v-2.2954h-1.1477v1.1477h-1.1477zm5.7384 0v1.1477h-1.1477v3.443h1.1477v1.1477h-4.5907v-1.1477h1.1477v-3.443h-4.5907v-2.2954h1.1477v-1.1477h1.1477v-1.1477h1.1477v-1.1477h1.1477v-1.1477h2.2954v5.7384z"></path>
          <path id="path3800" d="m161.07 135.08h-3.443v3.443h3.443zm0 4.5907h-3.443v4.5907h3.443zm-5.7384 0h1.1477v-1.1477h-1.1477v-3.443h1.1477v-1.1477h5.7384v1.1477h1.1477v3.443h-1.1477v1.1477h1.1477v4.5907h-1.1477v1.1477h-5.7384v-1.1477h-1.1477z"></path>
          <path id="path3802" d="m178.28 139.67h2.2954v-2.2954h-1.1477v1.1477h-1.1477zm5.7384 0v1.1477h-1.1477v3.443h1.1477v1.1477h-4.5907v-1.1477h1.1477v-3.443h-4.5907v-2.2954h1.1477v-1.1477h1.1477v-1.1477h1.1477v-1.1477h1.1477v-1.1477h2.2953v5.7384z"></path>
          <path id="path3804" d="m188.61 138.52h4.5907v1.1477h1.1477v4.5907h-1.1477v1.1477h-5.7384v-1.1477h-1.1477v-1.1477h2.2954v1.1477h3.443v-4.5907h-5.7384v-5.7384h8.0337v1.1477h-5.7384z"></path>
          <path id="path3806" d="m209.27 139.67h2.2954v-2.2954h-1.1477v1.1477h-1.1477zm5.7384 0v1.1477h-1.1477v3.443h1.1477v1.1477h-4.5907v-1.1477h1.1477v-3.443h-4.5907v-2.2954h1.1477v-1.1477h1.1477v-1.1477h1.1477v-1.1477h1.1477v-1.1477h2.2953v5.7384z"></path>
          <path id="path3808" d="m223.04 135.08h-2.2953v1.1477h-1.1477v6.886h1.1477v1.1477h2.2953v-1.1477h1.1477v-1.1477h1.1477v2.2954h-1.1477v1.1477h-4.5907v-1.1477h-1.1477v-1.1477h-1.1477v-6.886h1.1477v-1.1477h1.1477v-1.1477h4.5907v1.1477h1.1477v2.2953h-1.1477v-1.1477h-1.1477z"></path>
          <path id="path3810" d="m240.26 139.67h2.2954v-2.2954h-1.1477v1.1477h-1.1477zm5.7384 0v1.1477h-1.1477v3.443h1.1477v1.1477h-4.5907v-1.1477h1.1477v-3.443h-4.5907v-2.2954h1.1477v-1.1477h1.1477v-1.1477h1.1477v-1.1477h1.1477v-1.1477h2.2953v5.7384z"></path>
          <path id="path3812" d="m254.03 135.08h-2.2954v1.1477h-1.1477v6.886h1.1477v1.1477h2.2954v-1.1477h1.1477v-1.1477h1.1477v2.2954h-1.1477v1.1477h-4.5907v-1.1477h-1.1477v-1.1477h-1.1477v-6.886h1.1477v-1.1477h1.1477v-1.1477h4.5907v1.1477h1.1477v2.2953h-1.1477v-1.1477h-1.1477z"></path>
          <path id="path3814" d="m271.24 139.67h2.2954v-2.2954h-1.1477v1.1477h-1.1477zm5.7384 0v1.1477h-1.1477v3.443h1.1477v1.1477h-4.5907v-1.1477h1.1477v-3.443h-4.5907v-2.2954h1.1477v-1.1477h1.1477v-1.1477h1.1477v-1.1477h1.1477v-1.1477h2.2953v5.7384z"></path>
          <path id="path3816" d="m286.16 136.23h-1.1477v-1.1477h-2.2954v3.443h1.1477v-1.1477h1.1477v3.443h-1.1477v-1.1477h-1.1477v4.5907h1.1477v1.1477h-4.5907v-1.1477h1.1477v-9.1814h-1.1477v-1.1477h8.0337v3.443h-1.1477z"></path>
          <path id="path3818" d="m299.94 141.96h1.1477v-1.1477h1.1477v-1.1477h1.1477v-1.1477h1.1477v-1.1477h1.1477v-2.2953h-3.443v1.1477h-2.2954v-1.1477h1.1477v-1.1477h5.7384v1.1477h1.1477v2.2953h-1.1477v1.1477h-1.1477v1.1477h-1.1477v1.1477h-1.1477v1.1477h-1.1477v2.2954h3.443v-1.1477h2.2954v2.2954h-8.0337z"></path>
          <path id="path3820" d="m313.71 138.52h1.1477v2.2954h-1.1477zm1.1477 4.5907h1.1477v-6.886h-1.1477v-1.1477h-1.1477v1.1477h-1.1477v6.886h1.1477v1.1477h1.1477zm-2.2954 1.1477h-1.1477v-1.1477h-1.1477v-6.886h1.1477v-1.1477h1.1477v-1.1477h3.443v1.1477h1.1477v1.1477h1.1477v6.886h-1.1477v1.1477h-1.1477v1.1477h-3.443z"></path>
          <path id="path3822" d="m333.22 138.52h4.5907v1.1477h1.1477v4.5907h-1.1477v1.1477h-5.7384v-1.1477h-1.1477v-1.1477h2.2953v1.1477h3.443v-4.5907h-5.7384v-5.7384h8.0337v1.1477h-5.7384z"></path>
          <path id="path3824" d="m343.55 140.82h1.1477v-1.1477h1.1477v-1.1477h1.1477v-3.443h-3.443v1.1477h-2.2953v-2.2954h8.0337v4.5907h-1.1477v1.1477h-1.1477v1.1477h-1.1477v4.5907h-2.2954z"></path>
          <path id="path3826" d="m147.3 162.62h2.2953v-2.2954h-1.1477v1.1477h-1.1477zm5.7384 0v1.1477h-1.1477v3.443h1.1477v1.1477h-4.5907v-1.1477h1.1477v-3.443h-4.5907v-2.2954h1.1477v-1.1477h1.1477v-1.1477h1.1477v-1.1477h1.1477v-1.1477h2.2954v5.7384z"></path>
          <path id="path3828" d="m162.22 159.18h-1.1477v-1.1477h-2.2954v3.443h1.1477v-1.1477h1.1477v3.443h-1.1477v-1.1477h-1.1477v4.5907h1.1477v1.1477h-4.5907v-1.1477h1.1477v-9.1814h-1.1477v-1.1477h8.0337v3.443h-1.1477z"></path>
          <path id="path3830" d="m178.28 161.48h4.5907v1.1477h1.1477v4.5907h-1.1477v1.1477h-5.7384v-1.1477h-1.1477v-1.1477h2.2953v1.1477h3.443v-4.5907h-5.7384v-5.7384h8.0337v1.1477h-5.7384z"></path>
          <path id="path3832" d="m186.32 164.92h1.1477v-1.1477h1.1477v-1.1477h1.1477v-1.1477h1.1477v-1.1477h1.1477v-2.2953h-3.443v1.1477h-2.2954v-1.1477h1.1477v-1.1477h5.7384v1.1477h1.1477v2.2953h-1.1477v1.1477h-1.1477v1.1477h-1.1477v1.1477h-1.1477v1.1477h-1.1477v2.2954h3.443v-1.1477h2.2954v2.2954h-8.0337z"></path>
          <path id="path3834" d="m209.27 162.62h2.2954v-2.2954h-1.1477v1.1477h-1.1477zm5.7384 0v1.1477h-1.1477v3.443h1.1477v1.1477h-4.5907v-1.1477h1.1477v-3.443h-4.5907v-2.2954h1.1477v-1.1477h1.1477v-1.1477h1.1477v-1.1477h1.1477v-1.1477h2.2953v5.7384z"></path>
          <path id="path3836" d="m223.04 158.03h-2.2953v1.1477h-1.1477v6.886h1.1477v1.1477h2.2953v-1.1477h1.1477v-1.1477h1.1477v2.2954h-1.1477v1.1477h-4.5907v-1.1477h-1.1477v-1.1477h-1.1477v-6.886h1.1477v-1.1477h1.1477v-1.1477h4.5907v1.1477h1.1477v2.2953h-1.1477v-1.1477h-1.1477z"></path>
          <path id="path3838" d="m240.26 162.62h2.2954v-2.2954h-1.1477v1.1477h-1.1477zm5.7384 0v1.1477h-1.1477v3.443h1.1477v1.1477h-4.5907v-1.1477h1.1477v-3.443h-4.5907v-2.2954h1.1477v-1.1477h1.1477v-1.1477h1.1477v-1.1477h1.1477v-1.1477h2.2953v5.7384z"></path>
          <path id="path3840" d="m250.59 162.62h2.2954v-2.2954h-1.1477v1.1477h-1.1477zm5.7384 0v1.1477h-1.1477v3.443h1.1477v1.1477h-4.5907v-1.1477h1.1477v-3.443h-4.5907v-2.2954h1.1477v-1.1477h1.1477v-1.1477h1.1477v-1.1477h1.1477v-1.1477h2.2953v5.7384z"></path>
          <path id="path3842" d="m268.95 164.92h1.1477v-1.1477h1.1477v-1.1477h1.1477v-1.1477h1.1477v-1.1477h1.1477v-2.2953h-3.443v1.1477h-2.2953v-1.1477h1.1477v-1.1477h5.7384v1.1477h1.1477v2.2953h-1.1477v1.1477h-1.1477v1.1477h-1.1477v1.1477h-1.1477v1.1477h-1.1477v2.2954h3.443v-1.1477h2.2954v2.2954h-8.0337z"></path>
          <path id="path3844" d="m282.72 161.48h1.1477v2.2954h-1.1477zm1.1477 4.5907h1.1477v-6.886h-1.1477v-1.1477h-1.1477v1.1477h-1.1477v6.886h1.1477v1.1477h1.1477zm-2.2953 1.1477h-1.1477v-1.1477h-1.1477v-6.886h1.1477v-1.1477h1.1477v-1.1477h3.443v1.1477h1.1477v1.1477h1.1477v6.886h-1.1477v1.1477h-1.1477v1.1477h-3.443z"></path>
          <path id="path3846" d="m302.23 161.48h4.5907v1.1477h1.1477v4.5907h-1.1477v1.1477h-5.7384v-1.1477h-1.1477v-1.1477h2.2954v1.1477h3.443v-4.5907h-5.7384v-5.7384h8.0337v1.1477h-5.7384z"></path>
          <path id="path3848" d="m312.56 162.62h2.2954v-2.2954h-1.1477v1.1477h-1.1477zm5.7384 0v1.1477h-1.1477v3.443h1.1477v1.1477h-4.5907v-1.1477h1.1477v-3.443h-4.5907v-2.2954h1.1477v-1.1477h1.1477v-1.1477h1.1477v-1.1477h1.1477v-1.1477h2.2953v5.7384z"></path>
          <path id="path3850" d="m333.22 162.62h2.2954v-2.2954h-1.1477v1.1477h-1.1477zm5.7384 0v1.1477h-1.1477v3.443h1.1477v1.1477h-4.5907v-1.1477h1.1477v-3.443h-4.5907v-2.2954h1.1477v-1.1477h1.1477v-1.1477h1.1477v-1.1477h1.1477v-1.1477h2.2953v5.7384z"></path>
          <path id="path3852" d="m346.99 158.03h-3.443v3.443h3.443zm0 4.5907h-3.443v4.5907h3.443zm-5.7384 0h1.1477v-1.1477h-1.1477v-3.443h1.1477v-1.1477h5.7384v1.1477h1.1477v3.443h-1.1477v1.1477h1.1477v4.5907h-1.1477v1.1477h-5.7384v-1.1477h-1.1477z"></path>
          <path id="path3854" d="m147.3 185.58h2.2953v-2.2954h-1.1477v1.1477h-1.1477zm5.7384 0v1.1477h-1.1477v3.443h1.1477v1.1477h-4.5907v-1.1477h1.1477v-3.443h-4.5907v-2.2954h1.1477v-1.1477h1.1477v-1.1477h1.1477v-1.1477h1.1477v-1.1477h2.2954v5.7384z"></path>
          <path id="path3856" d="m156.48 190.17h4.5907v1.1477h-4.5907zm1.1477-5.7384h3.443v-3.443h-3.443zm2.2953 4.5907h1.1477v-3.443h-4.5907v-1.1477h-1.1477v-3.443h1.1477v-1.1477h5.7384v1.1477h1.1477v8.0337h-1.1477v1.1477h-2.2954z"></path>
          <path id="path3858" d="m178.28 184.43h4.5907v1.1477h1.1477v4.5907h-1.1477v1.1477h-5.7384v-1.1477h-1.1477v-1.1477h2.2953v1.1477h3.443v-4.5907h-5.7384v-5.7384h8.0337v1.1477h-5.7384z"></path>
          <path id="path3860" d="m188.61 184.43h3.443v-3.443h-3.443v1.1477h-2.2954v-1.1477h1.1477v-1.1477h5.7384v1.1477h1.1477v3.443h-1.1477v1.1477h1.1477v4.5907h-1.1477v1.1477h-5.7384v-1.1477h-1.1477v-1.1477h2.2954v1.1477h3.443v-4.5907h-3.443z"></path>
          <path id="path3862" d="m206.97 187.87h1.1477v-1.1477h1.1477v-1.1477h1.1477v-1.1477h1.1477v-1.1477h1.1477v-2.2953h-3.443v1.1477h-2.2953v-1.1477h1.1477v-1.1477h5.7384v1.1477h1.1477v2.2953h-1.1477v1.1477h-1.1477v1.1477h-1.1477v1.1477h-1.1477v1.1477h-1.1477v2.2954h3.443v-1.1477h2.2954v2.2954h-8.0337z"></path>
          <path id="path3864" d="m220.75 184.43h1.1477v2.2954h-1.1477zm1.1477 4.5907h1.1477v-6.886h-1.1477v-1.1477h-1.1477v1.1477h-1.1477v6.886h1.1477v1.1477h1.1477zm-2.2954 1.1477h-1.1477v-1.1477h-1.1477v-6.886h1.1477v-1.1477h1.1477v-1.1477h3.443v1.1477h1.1477v1.1477h1.1477v6.886h-1.1477v1.1477h-1.1477v1.1477h-3.443z"></path>
          <path id="path3866" d="m240.26 185.58h2.2954v-2.2954h-1.1477v1.1477h-1.1477zm5.7384 0v1.1477h-1.1477v3.443h1.1477v1.1477h-4.5907v-1.1477h1.1477v-3.443h-4.5907v-2.2954h1.1477v-1.1477h1.1477v-1.1477h1.1477v-1.1477h1.1477v-1.1477h2.2953v5.7384z"></path>
          <path id="path3868" d="m249.44 190.17h4.5907v1.1477h-4.5907zm1.1477-5.7384h3.443v-3.443h-3.443zm2.2954 4.5907h1.1477v-3.443h-4.5907v-1.1477h-1.1477v-3.443h1.1477v-1.1477h5.7384v1.1477h1.1477v8.0337h-1.1477v1.1477h-2.2953z"></path>
          <path id="path3870" d="m271.24 184.43h4.5907v1.1477h1.1477v4.5907h-1.1477v1.1477h-5.7384v-1.1477h-1.1477v-1.1477h2.2953v1.1477h3.443v-4.5907h-5.7384v-5.7384h8.0337v1.1477h-5.7384z"></path>
          <path id="path3872" d="m281.57 184.43h3.443v-3.443h-3.443v1.1477h-2.2954v-1.1477h1.1477v-1.1477h5.7384v1.1477h1.1477v3.443h-1.1477v1.1477h1.1477v4.5907h-1.1477v1.1477h-5.7384v-1.1477h-1.1477v-1.1477h2.2954v1.1477h3.443v-4.5907h-3.443z"></path>
          <path id="path3874" d="m299.94 187.87h1.1477v-1.1477h1.1477v-1.1477h1.1477v-1.1477h1.1477v-1.1477h1.1477v-2.2953h-3.443v1.1477h-2.2954v-1.1477h1.1477v-1.1477h5.7384v1.1477h1.1477v2.2953h-1.1477v1.1477h-1.1477v1.1477h-1.1477v1.1477h-1.1477v1.1477h-1.1477v2.2954h3.443v-1.1477h2.2954v2.2954h-8.0337z"></path>
          <path id="path3876" d="m313.71 184.43h1.1477v2.2954h-1.1477zm1.1477 4.5907h1.1477v-6.886h-1.1477v-1.1477h-1.1477v1.1477h-1.1477v6.886h1.1477v1.1477h1.1477zm-2.2954 1.1477h-1.1477v-1.1477h-1.1477v-6.886h1.1477v-1.1477h1.1477v-1.1477h3.443v1.1477h1.1477v1.1477h1.1477v6.886h-1.1477v1.1477h-1.1477v1.1477h-3.443z"></path>
          <path id="path3878" d="m333.22 185.58h2.2954v-2.2954h-1.1477v1.1477h-1.1477zm5.7384 0v1.1477h-1.1477v3.443h1.1477v1.1477h-4.5907v-1.1477h1.1477v-3.443h-4.5907v-2.2954h1.1477v-1.1477h1.1477v-1.1477h1.1477v-1.1477h1.1477v-1.1477h2.2953v5.7384z"></path>
          <path id="path3880" d="m346.99 182.13h-1.1477v-1.1477h-1.1477v9.1814h1.1477v-1.1477h1.1477zm0 8.0337v1.1477h-5.7384v-1.1477h1.1477v-9.1814h-1.1477v-1.1477h5.7384v1.1477h1.1477v1.1477h1.1477v6.886h-1.1477v1.1477z"></path>
          <path id="path3882" d="m147.3 207.38h4.5907v1.1477h1.1477v4.5907h-1.1477v1.1477h-5.7384v-1.1477h-1.1477v-1.1477h2.2954v1.1477h3.443v-4.5907h-5.7384v-5.7384h8.0337v1.1477h-5.7384z"></path>
          <path id="path3884" d="m156.48 213.12h4.5907v1.1477h-4.5907zm1.1477-5.7384h3.443v-3.443h-3.443zm2.2953 4.5907h1.1477v-3.443h-4.5907v-1.1477h-1.1477v-3.443h1.1477v-1.1477h5.7384v1.1477h1.1477v8.0337h-1.1477v1.1477h-2.2954z"></path>
          <path id="path3886" d="m175.99 210.83h1.1477v-1.1477h1.1477v-1.1477h1.1477v-1.1477h1.1477v-1.1477h1.1477v-2.2953h-3.443v1.1477h-2.2953v-1.1477h1.1477v-1.1477h5.7384v1.1477h1.1477v2.2953h-1.1477v1.1477h-1.1477v1.1477h-1.1477v1.1477h-1.1477v1.1477h-1.1477v2.2954h3.443v-1.1477h2.2954v2.2953h-8.0337z"></path>
          <path id="path3888" d="m189.76 207.38h1.1477v2.2953h-1.1477zm1.1477 4.5907h1.1477v-6.886h-1.1477v-1.1477h-1.1477v1.1477h-1.1477v6.886h1.1477v1.1477h1.1477zm-2.2953 1.1477h-1.1477v-1.1477h-1.1477v-6.886h1.1477v-1.1477h1.1477v-1.1477h3.443v1.1477h1.1477v1.1477h1.1477v6.886h-1.1477v1.1477h-1.1477v1.1477h-3.443z"></path>
          <path id="path3890" d="m209.27 208.53h2.2954v-2.2954h-1.1477v1.1477h-1.1477zm5.7384 0v1.1477h-1.1477v3.443h1.1477v1.1477h-4.5907v-1.1477h1.1477v-3.443h-4.5907v-2.2953h1.1477v-1.1477h1.1477v-1.1477h1.1477v-1.1477h1.1477v-1.1477h2.2953v5.7384z"></path>
          <path id="path3892" d="m219.6 207.38h3.443v-3.443h-3.443v1.1477h-2.2953v-1.1477h1.1477v-1.1477h5.7384v1.1477h1.1477v3.443h-1.1477v1.1477h1.1477v4.5907h-1.1477v1.1477h-5.7384v-1.1477h-1.1477v-1.1477h2.2953v1.1477h3.443v-4.5907h-3.443z"></path>
          <path id="path3894" d="m240.26 208.53h2.2954v-2.2954h-1.1477v1.1477h-1.1477zm5.7384 0v1.1477h-1.1477v3.443h1.1477v1.1477h-4.5907v-1.1477h1.1477v-3.443h-4.5907v-2.2953h1.1477v-1.1477h1.1477v-1.1477h1.1477v-1.1477h1.1477v-1.1477h2.2953v5.7384z"></path>
          <path id="path3896" d="m255.18 205.09h-1.1477v-1.1477h-2.2954v3.443h1.1477v-1.1477h1.1477v3.443h-1.1477v-1.1477h-1.1477v4.5907h1.1477v1.1477h-4.5907v-1.1477h1.1477v-9.1814h-1.1477v-1.1477h8.0337v3.443h-1.1477z"></path>
          <path id="path3898" d="m271.24 208.53h2.2954v-2.2954h-1.1477v1.1477h-1.1477zm5.7384 0v1.1477h-1.1477v3.443h1.1477v1.1477h-4.5907v-1.1477h1.1477v-3.443h-4.5907v-2.2953h1.1477v-1.1477h1.1477v-1.1477h1.1477v-1.1477h1.1477v-1.1477h2.2953v5.7384z"></path>
          <path id="path3900" d="m285.02 205.09h-1.1477v-1.1477h-1.1477v9.1814h1.1477v-1.1477h1.1477zm0 8.0337v1.1477h-5.7384v-1.1477h1.1477v-9.1814h-1.1477v-1.1477h5.7384v1.1477h1.1477v1.1477h1.1477v6.886h-1.1477v1.1477z"></path>
          <path id="path3902" d="m302.23 207.38h4.5907v1.1477h1.1477v4.5907h-1.1477v1.1477h-5.7384v-1.1477h-1.1477v-1.1477h2.2954v1.1477h3.443v-4.5907h-5.7384v-5.7384h8.0337v1.1477h-5.7384z"></path>
          <path id="path3904" d="m313.71 207.38h1.1477v2.2953h-1.1477zm1.1477 4.5907h1.1477v-6.886h-1.1477v-1.1477h-1.1477v1.1477h-1.1477v6.886h1.1477v1.1477h1.1477zm-2.2954 1.1477h-1.1477v-1.1477h-1.1477v-6.886h1.1477v-1.1477h1.1477v-1.1477h3.443v1.1477h1.1477v1.1477h1.1477v6.886h-1.1477v1.1477h-1.1477v1.1477h-3.443z"></path>
          <path id="path3906" d="m333.22 207.38h4.5907v1.1477h1.1477v4.5907h-1.1477v1.1477h-5.7384v-1.1477h-1.1477v-1.1477h2.2953v1.1477h3.443v-4.5907h-5.7384v-5.7384h8.0337v1.1477h-5.7384z"></path>
          <path id="path3908" d="m343.55 207.38h4.5907v1.1477h1.1477v4.5907h-1.1477v1.1477h-5.7384v-1.1477h-1.1477v-1.1477h2.2953v1.1477h3.443v-4.5907h-5.7384v-5.7384h8.0337v1.1477h-5.7384z"></path>
          <path id="path3910" d="m147.3 230.34h4.5907v1.1477h1.1477v4.5907h-1.1477v1.1477h-5.7384v-1.1477h-1.1477v-1.1477h2.2954v1.1477h3.443v-4.5907h-5.7384v-5.7384h8.0337v1.1477h-5.7384z"></path>
          <path id="path3912" d="m157.62 231.48h2.2953v-2.2954h-1.1477v1.1477h-1.1477zm5.7384 0v1.1477h-1.1477v3.443h1.1477v1.1477h-4.5907v-1.1477h1.1477v-3.443h-4.5907v-2.2953h1.1477v-1.1477h1.1477v-1.1477h1.1477v-1.1477h1.1477v-1.1477h2.2954v5.7384z"></path>
          <path id="path3914" d="m178.28 231.48h2.2954v-2.2954h-1.1477v1.1477h-1.1477zm5.7384 0v1.1477h-1.1477v3.443h1.1477v1.1477h-4.5907v-1.1477h1.1477v-3.443h-4.5907v-2.2953h1.1477v-1.1477h1.1477v-1.1477h1.1477v-1.1477h1.1477v-1.1477h2.2953v5.7384z"></path>
          <path id="path3916" d="m188.61 230.34h4.5907v1.1477h1.1477v4.5907h-1.1477v1.1477h-5.7384v-1.1477h-1.1477v-1.1477h2.2954v1.1477h3.443v-4.5907h-5.7384v-5.7384h8.0337v1.1477h-5.7384z"></path>
          <path id="path3918" d="m209.27 230.34h4.5907v1.1477h1.1477v4.5907h-1.1477v1.1477h-5.7384v-1.1477h-1.1477v-1.1477h2.2953v1.1477h3.443v-4.5907h-5.7384v-5.7384h8.0337v1.1477h-5.7384z"></path>
          <path id="path3920" d="m217.3 233.78h1.1477v-1.1477h1.1477v-1.1477h1.1477v-1.1477h1.1477v-1.1477h1.1477v-2.2953h-3.443v1.1477h-2.2953v-1.1477h1.1477v-1.1477h5.7384v1.1477h1.1477v2.2953h-1.1477v1.1477h-1.1477v1.1477h-1.1477v1.1477h-1.1477v1.1477h-1.1477v2.2954h3.443v-1.1477h2.2954v2.2953h-8.0337z"></path>
        </g>
        <path id="rect4049" d="m116.01 1076.4h191.42c3.3402 0 6.0293 2.6891 6.0293 6.0294v8.483c0 3.3403-2.6891 6.0294-6.0293 6.0294h-191.42c-3.3402 0-6.0293-2.6891-6.0293-6.0294v-8.483c0-3.3403 2.6891-6.0294 6.0293-6.0294z" fill-rule="evenodd" stroke="#540" stroke-width=".76737px" fill="url(#linearGradient4209)"></path>
      </g>
    </g>
    <metadata>
      <rdf:RDF>
        <cc:Work>
          <dc:format>image/svg+xml</dc:format>
          <dc:type rdfResource="http://purl.org/dc/dcmitype/StillImage"></dc:type>
          <cc:license rdfResource="http://creativecommons.org/licenses/publicdomain/"></cc:license>
          <dc:publisher>
            <cc:Agent rdfAbout="http://openclipart.org/">
              <dc:title>Openclipart</dc:title>
            </cc:Agent>
          </dc:publisher>
          <dc:title>Old computer</dc:title>
          <dc:date>2013-09-01T14:52:50</dc:date>
          <dc:description>An old computer monitor displaying text in hexadecimal format.</dc:description>
          <dc:source>https://openclipart.org/detail/182810/old-computer-by-jhnri4-182810</dc:source>
          <dc:creator>
            <cc:Agent>
              <dc:title>jhnri4</dc:title>
            </cc:Agent>
          </dc:creator>
          <dc:subject>
            <rdf:Bag>
              <rdf:li>computer</rdf:li>
              <rdf:li>icon</rdf:li>
              <rdf:li>monitor</rdf:li>
              <rdf:li>programming</rdf:li>
              <rdf:li>technology</rdf:li>
            </rdf:Bag>
          </dc:subject>
        </cc:Work>
        <cc:License rdfAbout="http://creativecommons.org/licenses/publicdomain/">
          <cc:permits rdfResource="http://creativecommons.org/ns#Reproduction"></cc:permits>
          <cc:permits rdfResource="http://creativecommons.org/ns#Distribution"></cc:permits>
          <cc:permits rdfResource="http://creativecommons.org/ns#DerivativeWorks"></cc:permits>
        </cc:License>
      </rdf:RDF>
    </metadata>
  </symbol>
  <symbol xmlnsDc="http://purl.org/dc/elements/1.1/" xmlnsCc="http://creativecommons.org/ns#" xmlnsRdf="http://www.w3.org/1999/02/22-rdf-syntax-ns#" xmlnsSvg="http://www.w3.org/2000/svg" xmlns="http://www.w3.org/2000/svg" xmlnsSodipodi="http://sodipodi.sourceforge.net/DTD/sodipodi-0.dtd" xmlnsInkscape="http://www.inkscape.org/namespaces/inkscape" id="graphbar-skills" version="1.1" inkscapeVersion="0.48.4 r9939" sodipodiDocname="graphbar-skills.svg" inkscapeExportFilename="/home/teles/graphbar-skills.png" inkscapeExportXdpi="270.0784" inkscapeExportYdpi="270.0784" viewBox="0 0 572.42572 159.22">
    <defs id="defs4"></defs>
    <sodipodi:namedview id="base" pagecolor="#ffffff" bordercolor="#666666" borderopacity="1.0" inkscapePageopacity="0.0" inkscapePageshadow="2" inkscapeZoom="1.1075294" inkscapeCx="315.09859" inkscapeCy="59.856716" inkscapeDocumentUnits="px" inkscapeCurrentLayer="layer1" showgrid="false" showguides="true" inkscapeGuideBbox="true" fitMarginTop="0" fitMarginLeft="0" fitMarginRight="0" fitMarginBottom="0" inkscapeShowpageshadow="false" inkscapeWindowWidth="1366" inkscapeWindowHeight="692" inkscapeWindowX="0" inkscapeWindowY="24" inkscapeWindowMaximized="1"></sodipodi:namedview>
    <metadata id="metadata7">
      <rdf:RDF>
        <cc:Work rdfAbout="">
          <dc:format>image/svg+xml</dc:format>
          <dc:type rdfResource="http://purl.org/dc/dcmitype/StillImage"></dc:type>
          <dc:title></dc:title>
        </cc:Work>
      </rdf:RDF>
    </metadata>
    <g inkscapeLabel="Camada 1" inkscapeGroupmode="layer" id="layer1" transform="translate(-123.73707,-466.75439)">
      <g id="g3334" transform="matrix(1.0837638,0,0,1,-10.364686,0)">
        <rect y="466.75439" x="123.73707" height="159.22" width="528.17999" id="rect3053"></rect>
        <rect y="624.75879" x="123.73707" height="1.2156112" width="528.18311" id="rect3008"></rect>
        <rect id="rect3018" width="528.18311" height="1.2156112" x="123.73707" y="586.75879"></rect>
        <rect y="546.75879" x="123.73707" height="1.2156112" width="528.18311" id="rect3020"></rect>
        <rect id="rect3022" width="528.18311" height="1.2156112" x="123.73707" y="506.75879"></rect>
      </g>
      <g id="g3137" transform="translate(-2.8786871,0)">
        <g transform="translate(9.7262917,0)" id="g3156">
          <rect id="rect3034" width="39.130531" height="158.56975" x="237.73706" y="466.92377"></rect>
          <rect y="479.4545" x="237.73706" height="146.03903" width="39.130531" id="rect3036"></rect><text xml:space="preserve" x="-623.70929" y="262.14633" id="text3038" sodipodiLinespacing="125%" transform="matrix(0,-0.9867175,1.0134613,0,0,0)">
            <tspan sodipodiRole="line" id="tspan3040" x="-623.70929" y="262.14633">sass/scss </tspan>
          </text>
        </g>
        <g transform="translate(8.3262825,0)" id="g3162">
          <rect y="466.92377" x="287.73706" height="158.56975" width="39.130531" id="rect3042"></rect>
          <rect id="rect3044" width="39.130531" height="140.88162" x="287.73706" y="484.61188"></rect><text transform="matrix(0,-0.9867175,1.0134613,0,0,0)" sodipodiLinespacing="125%" id="text3046" y="311.48227" x="-623.70929" xml:space="preserve">
            <tspan y="311.48227" x="-623.70929" id="tspan3048" sodipodiRole="line">mobile first</tspan>
          </text>
        </g>
        <g transform="translate(10.926288,0)" id="g3168">
          <rect id="rect3050" width="39.130531" height="158.56975" x="333.73706" y="466.92377"></rect>
          <rect y="500.08411" x="333.73706" height="125.40942" width="39.130531" id="rect3052"></rect><text xml:space="preserve" x="-623.70929" y="356.87131" id="text3054" sodipodiLinespacing="125%" transform="matrix(0,-0.9867175,1.0134613,0,0,0)">
            <tspan sodipodiRole="line" id="tspan3056" x="-623.70929" y="356.87131">javascript</tspan>
          </text>
        </g>
        <g transform="translate(13.526295,0)" id="g3174">
          <rect y="466.92377" x="379.73706" height="158.56975" width="39.130531" id="rect3058"></rect>
          <rect id="rect3060" width="39.130531" height="135.72421" x="379.73706" y="489.76932"></rect><text transform="matrix(0,-0.9867175,1.0134613,0,0,0)" sodipodiLinespacing="125%" id="text3062" y="402.26019" x="-623.70929" xml:space="preserve">
            <tspan y="402.26019" x="-623.70929" id="tspan3064" sodipodiRole="line">angularjs</tspan>
          </text>
        </g>
        <g transform="translate(14.12627,0)" id="g3186">
          <rect id="rect3066" width="39.130531" height="158.56975" x="427.73706" y="466.92377"></rect>
          <rect y="489.76932" x="427.73706" height="135.72421" width="39.130531" id="rect3068"></rect><text xml:space="preserve" x="-623.70929" y="449.62253" id="text3070" sodipodiLinespacing="125%" transform="matrix(0,-0.9867175,1.0134613,0,0,0)">
            <tspan sodipodiRole="line" id="tspan3072" x="-623.70929" y="449.62253">grunt</tspan>
          </text>
        </g>
        <g transform="translate(14.726276,0)" id="g3192">
          <rect y="466.92377" x="475.73706" height="158.56975" width="39.130531" id="rect3074"></rect>
          <rect id="rect3076" width="39.130531" height="119.39244" x="475.73706" y="506.1011"></rect><text transform="matrix(0,-0.9867175,1.0134613,0,0,0)" sodipodiLinespacing="125%" id="text3078" y="496.98502" x="-623.70929" xml:space="preserve">
            <tspan y="496.98502" x="-623.70929" id="tspan3080" sodipodiRole="line">svg</tspan>
          </text>
        </g>
        <g transform="translate(15.326283,0)" id="g3198">
          <rect id="rect3082" width="39.130531" height="158.56975" x="523.73706" y="466.92377"></rect>
          <rect y="506.1011" x="523.73706" height="119.39244" width="39.130531" id="rect3084"></rect><text xml:space="preserve" x="-623.70929" y="544.34753" id="text3086" sodipodiLinespacing="125%" transform="matrix(0,-0.9867175,1.0134613,0,0,0)">
            <tspan sodipodiRole="line" id="tspan3088" x="-623.70929" y="544.34753">webfonts</tspan>
          </text>
        </g>
        <g transform="translate(1.3999939,0)" id="g3131">
          <rect y="466.92377" x="586.26337" height="158.56975" width="39.130531" id="rect3090"></rect>
          <rect id="rect3092" width="39.130531" height="131.35431" x="586.26337" y="494.13922"></rect><text transform="matrix(0,-0.9867175,1.0134613,0,0,0)" sodipodiLinespacing="125%" id="text3094" y="606.04327" x="-623.70929" xml:space="preserve">
            <tspan y="606.04327" x="-623.70929" id="tspan3096" sodipodiRole="line">git</tspan>
          </text>
        </g>
        <g transform="translate(6.5262947,0)" id="g3260">
          <rect id="rect3004" width="39.130531" height="158.56975" x="143.73706" y="466.92377"></rect>
          <rect y="486.33102" x="143.73706" height="139.16249" width="39.130531" id="rect3006"></rect><text xml:space="preserve" x="-623.70929" y="169.39497" id="text3014" sodipodiLinespacing="125%" transform="matrix(0,-0.9867175,1.0134613,0,0,0)">
            <tspan sodipodiRole="line" id="tspan3016" x="-623.70929" y="169.39497">html5</tspan>
          </text><text transform="matrix(0,-0.9867175,1.0134613,0,0,0)" sodipodiLinespacing="125%" id="text3102" y="169.39497" x="-623.70929" xml:space="preserve">
            <tspan y="169.39497" x="-623.70929" id="tspan3104" sodipodiRole="line">html5</tspan>
          </text>
        </g>
        <g transform="translate(3.1262931,0)" id="g3242">
          <rect id="rect3210" width="39.130531" height="158.56975" x="195.73706" y="466.92377"></rect>
          <rect y="485.47147" x="195.73706" height="140.02206" width="39.130531" id="rect3212"></rect><text xml:space="preserve" x="-623.70929" y="220.70427" id="text3214" sodipodiLinespacing="125%" transform="matrix(0,-0.9867175,1.0134613,0,0,0)">
            <tspan sodipodiRole="line" id="tspan3216" x="-623.70929" y="220.70427">css3 + smacss </tspan>
          </text>
          <rect y="466.92377" x="195.73706" height="158.56975" width="39.130531" id="rect3218"></rect>
          <rect id="rect3220" width="39.130531" height="140.02206" x="195.73706" y="485.47147"></rect><text transform="matrix(0,-0.9867175,1.0134613,0,0,0)" sodipodiLinespacing="125%" id="text3222" y="220.70427" x="-623.70929" xml:space="preserve">
            <tspan y="220.70427" x="-623.70929" id="tspan3224" sodipodiRole="line">css3 + smacss </tspan>
          </text>
          <rect y="466.92377" x="195.73706" height="158.56975" width="39.130531" id="rect3226"></rect>
          <rect id="rect3228" width="39.130531" height="140.02206" x="195.73706" y="485.47147"></rect><text transform="matrix(0,-0.9867175,1.0134613,0,0,0)" sodipodiLinespacing="125%" id="text3230" y="220.70427" x="-623.70929" xml:space="preserve">
            <tspan y="220.70427" x="-623.70929" id="tspan3232" sodipodiRole="line">css3 + smacss </tspan>
          </text>
          <rect id="rect3234" width="39.130531" height="158.56975" x="195.73706" y="466.92377"></rect>
          <rect y="485.47147" x="195.73706" height="140.02206" width="39.130531" id="rect3236"></rect><text xml:space="preserve" x="-623.70929" y="220.70427" id="text3238" sodipodiLinespacing="125%" transform="matrix(0,-0.9867175,1.0134613,0,0,0)">
            <tspan sodipodiRole="line" id="tspan3240" x="-623.70929" y="220.70427">css3 + smacss </tspan>
          </text>
        </g>
        <g id="g3117" transform="translate(66.526295,0)">
          <rect id="rect3119" width="39.130531" height="158.56975" x="569.73706" y="466.92377"></rect>
          <rect y="528.44983" x="569.73706" height="97.043701" width="39.130531" id="rect3121"></rect><text xml:space="preserve" x="-623.70929" y="589.73651" id="text3123" sodipodiLinespacing="125%" transform="matrix(0,-0.9867175,1.0134613,0,0,0)">
            <tspan sodipodiRole="line" id="tspan3125" x="-623.70929" y="589.73651">linux</tspan>
          </text>
        </g>
      </g>
    </g>
  </symbol>
  <symbol xmlnsDc="http://purl.org/dc/elements/1.1/" xmlnsCc="http://creativecommons.org/ns#" xmlnsRdf="http://www.w3.org/1999/02/22-rdf-syntax-ns#" xmlnsSvg="http://www.w3.org/2000/svg" xmlns="http://www.w3.org/2000/svg" xmlnsSodipodi="http://sodipodi.sourceforge.net/DTD/sodipodi-0.dtd" xmlnsInkscape="http://www.inkscape.org/namespaces/inkscape" version="1.1" id="koord6" inkscapeVersion="0.91 r13725" sodipodiDocname="koord6.svg" inkscapeExportFilename="./koord6.png" inkscapeExportXdpi="134.55" inkscapeExportYdpi="134.55" viewBox="0 0 342.48199 195.70399">
    <metadata id="metadata137">
      <rdf:RDF>
        <cc:Work rdfAbout="">
          <dc:format>image/svg+xml</dc:format>
          <dc:type rdfResource="http://purl.org/dc/dcmitype/StillImage"></dc:type>
          <dc:title></dc:title>
        </cc:Work>
      </rdf:RDF>
    </metadata>
    <sodipodi:namedview pagecolor="#ffffff" bordercolor="#666666" borderopacity="1" objecttolerance="10" gridtolerance="10" guidetolerance="10" inkscapePageopacity="0" inkscapePageshadow="2" inkscapeWindowWidth="1133" inkscapeWindowHeight="1061" id="namedview135" showgrid="true" inkscapeObjectPaths="true" inkscapeSnapIntersectionPaths="true" inkscapeObjectNodes="true" inkscapeSnapSmoothNodes="true" inkscapeSnapBbox="true" inkscapeBboxNodes="false" inkscapeBboxPaths="false" inkscapeSnapBboxEdgeMidpoints="true" inkscapeSnapObjectMidpoints="true" fitMarginTop="0" fitMarginLeft="0" fitMarginRight="0" fitMarginBottom="0" inkscapeZoom="1" inkscapeCx="288.96683" inkscapeCy="217.52305" inkscapeWindowX="0" inkscapeWindowY="0" inkscapeWindowMaximized="0" inkscapeCurrentLayer="svg2">
      <inkscape:grid type="xygrid" id="grid4477" spacingx="12.2315" spacingy="12.2315" dotted="false" originx="-146.778" originy="-97.852"></inkscape:grid>
    </sodipodi:namedview>
    <defs id="defs4">
      <marker markerUnits="strokeWidth" refX="0" refY="5" markerWidth="4" markerHeight="3" orient="auto" viewBox="0 0 10 10" id="ArrowEnd">
        <path d="M 0,0 10,5 0,10 0,0 Z" id="path7" inkscapeConnectorCurvature="0"></path>
      </marker>
      <marker markerUnits="strokeWidth" refX="10" refY="5" markerWidth="4" markerHeight="3" orient="auto" viewBox="0 0 10 10" id="ArrowStart">
        <path d="M 10,0 0,5 10,10 10,0 Z" id="path10" inkscapeConnectorCurvature="0"></path>
      </marker>
    </defs>
    <rect id="rect4489" width="342.48199" height="195.70399" x="0" y="-195.70399" transform="scale(1,-1)"></rect>
    <g id="g4348">
      <g id="g4316" transform="matrix(1.8555206,0,0,1,-101.23969,85.620502)">
        <path sodipodiNodetypes="cc" inkscapeConnectorCurvature="0" id="path4318" d="m 61.157505,36.694491 171.240995,9e-6"></path>
        <path d="M 61.157505,48.925991 232.3985,48.926" id="path4320" inkscapeConnectorCurvature="0" sodipodiNodetypes="cc"></path>
        <path d="m 67.63818,61.178063 164.76032,9e-6" id="path4322" inkscapeConnectorCurvature="0" sodipodiNodetypes="cc"></path>
        <path sodipodiNodetypes="cc" inkscapeConnectorCurvature="0" id="path4324" d="m 61.157505,73.409563 171.240995,9e-6"></path>
        <path sodipodiNodetypes="cc" inkscapeConnectorCurvature="0" id="path4326" d="m 61.157505,85.620492 171.240995,9e-6"></path>
      </g>
    </g>
    <g transform="matrix(1,0,0,1.5531119,97.851995,-6.8274387)" id="g4265">
      <path inkscapeConnectorCurvature="0" id="path4269" d="m 97.852005,12.231491 0,110.083509"></path>
      <path inkscapeConnectorCurvature="0" id="path4271" d="m 110.08351,16.966047 0,105.351523"></path>
      <path d="m 122.31501,12.231491 0,110.083509" id="path4273" inkscapeConnectorCurvature="0"></path>
      <path inkscapeConnectorCurvature="0" id="path4275" d="m 134.54651,12.231491 0,110.083509"></path>
      <path d="m 146.77801,12.231491 0,110.083509" id="path4277" inkscapeConnectorCurvature="0"></path>
      <path d="m 159.00951,12.231491 0,110.083509" id="path4279" inkscapeConnectorCurvature="0"></path>
      <path inkscapeConnectorCurvature="0" id="path4281" d="m 171.24101,16.966047 0,105.351523"></path>
      <path d="m 183.47251,12.231491 0,110.083509" id="path4283" inkscapeConnectorCurvature="0"></path>
      <path inkscapeConnectorCurvature="0" id="path4285" d="m 195.70401,12.231491 0,110.083509"></path>
      <path inkscapeConnectorCurvature="0" id="path4287" d="m 207.93551,12.231491 0,110.083509"></path>
      <path d="m 220.16701,12.231491 0,110.083509" id="path4289" inkscapeConnectorCurvature="0"></path>
    </g>
    <g id="g4745" transform="matrix(1,0,0,1.5531119,-48.926006,-6.8274387)">
      <path inkscapeConnectorCurvature="0" id="path4717" d="m 85.620505,16.966047 0,105.351523"></path>
      <path d="m 97.852005,16.966047 0,105.351523" id="path4719" inkscapeConnectorCurvature="0"></path>
      <path d="m 110.08351,16.966047 0,105.351523" id="path4721" inkscapeConnectorCurvature="0"></path>
      <path inkscapeConnectorCurvature="0" id="path4723" d="m 122.31501,16.966047 0,105.351523"></path>
      <path d="m 134.54651,16.966047 0,105.351523" id="path4725" inkscapeConnectorCurvature="0"></path>
      <path inkscapeConnectorCurvature="0" id="path4727" d="m 146.77801,12.231491 0,110.083509"></path>
      <path inkscapeConnectorCurvature="0" id="path4729" d="m 159.00951,12.231491 0,110.083509"></path>
      <path d="m 171.24101,12.231491 0,110.083509" id="path4731" inkscapeConnectorCurvature="0"></path>
      <path inkscapeConnectorCurvature="0" id="path4733" d="m 183.47251,12.231491 0,110.083509"></path>
      <path d="m 195.70401,16.966047 0,105.351523" id="path4735" inkscapeConnectorCurvature="0"></path>
      <path d="m 207.93551,12.231491 0,110.083509" id="path4737" inkscapeConnectorCurvature="0"></path>
      <path inkscapeConnectorCurvature="0" id="path4739" d="m 220.16701,12.231491 0,110.083509"></path>
      <path inkscapeConnectorCurvature="0" id="path4741" d="m 232.39851,12.231491 0,110.083509"></path>
    </g>
    <g id="g4708" transform="matrix(1.8555206,0,0,1,-101.23969,0)">
      <path sodipodiNodetypes="cc" inkscapeConnectorCurvature="0" id="path4694" d="m 67.388923,36.694491 165.009577,9e-6"></path>
      <path d="M 67.746964,48.925991 232.3985,48.926" id="path4696" inkscapeConnectorCurvature="0" sodipodiNodetypes="cc"></path>
      <path d="m 67.746964,61.178063 164.651536,9e-6" id="path4698" inkscapeConnectorCurvature="0" sodipodiNodetypes="cc"></path>
      <path sodipodiNodetypes="cc" inkscapeConnectorCurvature="0" id="path4700" d="m 67.746964,73.409563 164.651536,9e-6"></path>
      <path sodipodiNodetypes="cc" inkscapeConnectorCurvature="0" id="path4702" d="m 67.63818,85.620492 164.76032,9e-6"></path>
      <path sodipodiNodetypes="cc" inkscapeConnectorCurvature="0" id="path4704" d="m 61.157505,97.872564 171.240995,9e-6"></path>
      <path d="m 61.157505,110.10407 171.240995,0" id="path4706" inkscapeConnectorCurvature="0" sodipodiNodetypes="cc"></path>
    </g>
    <path inkscapeConnectorCurvature="0" id="path18" d="m 323.61033,18.54033 16.60118,5.92899 -16.60118,5.92899 6.64018,-5.92899"></path>
    <path inkscapeConnectorCurvature="0" id="path28" d="m 85.617364,19.28126 0,10.37611"></path>
    <path inkscapeConnectorCurvature="0" id="path30" d="m 146.77003,19.28126 0,10.37611"></path>
    <path inkscapeConnectorCurvature="0" id="path52" d="m 29.654247,85.62049 -10.37611,0"></path>
    <path inkscapeConnectorCurvature="0" id="path76" d="m 9.1820167,24.46932 321.0684933,0" sodipodiNodetypes="cc"></path>
    <path inkscapeConnectorCurvature="0" id="path78" d="m 24.466197,6.17614 0,91.64539 0,85.65096" sodipodiNodetypes="ccc"></path>
    <path inkscapeConnectorCurvature="0" id="path80" d="m 36.696127,21.94894 0,5.03927"></path>
    <path inkscapeConnectorCurvature="0" id="path82" d="m 48.926067,21.94894 0,5.03927"></path>
    <path inkscapeConnectorCurvature="0" id="path84" d="m 61.157494,21.94894 0,5.03927"></path>
    <path inkscapeConnectorCurvature="0" id="path86" d="m 73.387434,21.94894 0,5.03927"></path>
    <path inkscapeConnectorCurvature="0" id="path88" d="m 85.617364,21.94894 0,5.03927"></path>
    <path inkscapeConnectorCurvature="0" id="path90" d="m 97.848794,21.94894 0,5.03927"></path>
    <path inkscapeConnectorCurvature="0" id="path92" d="m 110.07873,21.94894 0,5.03927"></path>
    <path inkscapeConnectorCurvature="0" id="path94" d="m 122.30867,21.94894 0,5.03927"></path>
    <path inkscapeConnectorCurvature="0" id="path96" d="m 134.5386,21.94894 0,5.03927"></path>
    <path inkscapeConnectorCurvature="0" id="path98" d="m 146.77003,21.94894 0,5.03927"></path>
    <path inkscapeConnectorCurvature="0" id="path100" d="m 158.99997,21.94894 0,5.03927"></path>
    <path inkscapeConnectorCurvature="0" id="path102" d="m 171.22991,21.94894 0,5.03927"></path>
    <path inkscapeConnectorCurvature="0" id="path104" d="m 183.45984,21.94894 0,5.03927"></path>
    <path inkscapeConnectorCurvature="0" id="path106" d="m 12.236257,26.982626 0,-5.03927"></path>
    <path inkscapeConnectorCurvature="0" id="path132" d="m 26.986577,36.69925 -5.03927,0"></path>
    <path inkscapeConnectorCurvature="0" id="path134" d="m 26.986577,48.93068 -5.03927,0"></path>
    <path inkscapeConnectorCurvature="0" id="path136" d="m 26.986577,61.16062 -5.03927,0"></path>
    <path inkscapeConnectorCurvature="0" id="path138" d="m 26.986577,73.39056 -5.03927,0"></path>
    <path inkscapeConnectorCurvature="0" id="path140" d="m 26.986577,85.62049 -5.03927,0"></path>
    <path inkscapeConnectorCurvature="0" id="path142" d="m 26.986577,97.85192 -5.03927,0"></path>
    <path inkscapeConnectorCurvature="0" id="path144" d="m 26.986577,110.08186 -5.03927,0"></path>
    <path inkscapeConnectorCurvature="0" id="path158" d="m 26.986577,12.23938 -5.03927,0"></path>
    <g id="text4277">
      <path d="m 339.60834,37.636303 -1.56,-4.035 2.835,-3.81 -1.32,0 -1.98,2.76 -1.005,-2.76 -1.395,0 1.5,3.81 -2.97,4.035 1.365,0 2.07,-2.955 1.08,2.955 1.38,0 z" id="path4379" inkscapeConnectorCurvature="0"></path>
    </g>
    <path d="m 207.77819,19.28126 0,10.37611" id="path4221" inkscapeConnectorCurvature="0"></path>
    <path d="m 195.71189,21.94894 0,5.03927" id="path4223" inkscapeConnectorCurvature="0"></path>
    <path d="m 305.62707,21.94894 0,5.03927" id="path4225" inkscapeConnectorCurvature="0"></path>
    <path d="m 317.857,21.94894 0,5.03927" id="path4227" inkscapeConnectorCurvature="0"></path>
    <path d="m 207.77819,21.94894 0,5.03927" id="path4229" inkscapeConnectorCurvature="0"></path>
    <path d="m 220.00813,21.94894 0,5.03927" id="path4231" inkscapeConnectorCurvature="0"></path>
    <path d="m 232.23807,21.94894 0,5.03927" id="path4233" inkscapeConnectorCurvature="0"></path>
    <path d="m 244.468,21.94894 0,5.03927" id="path4235" inkscapeConnectorCurvature="0"></path>
    <path inkscapeConnectorCurvature="0" id="path4253" d="m 268.93413,19.28126 0,10.37611"></path>
    <path inkscapeConnectorCurvature="0" id="path4255" d="m 256.7027,21.94894 0,5.03927"></path>
    <path inkscapeConnectorCurvature="0" id="path4257" d="m 268.93413,21.94894 0,5.03927"></path>
    <path inkscapeConnectorCurvature="0" id="path4259" d="m 281.16407,21.94894 0,5.03927"></path>
    <path inkscapeConnectorCurvature="0" id="path4261" d="m 293.39401,21.94894 0,5.03927"></path>
    <g id="text4293">
      <path d="m 82.243228,9.8053814 1.059235,-5.9255765 5.127312,0 0,1.9189043 -3.592188,0 -0.36843,2.0877679 q 0.767562,-0.3223759 1.458367,-0.3223759 1.719339,0 2.763222,1.3202061 0.828967,1.0592352 0.828967,2.5483047 0,1.8575 -1.289504,3.024193 -1.059235,0.967128 -2.563656,0.967128 -1.842148,0 -3.039544,-1.36626 -0.0307,-0.04605 -0.07676,-0.09211 -0.767562,-0.936425 -0.828967,-2.133822 l 2.041714,0 q 0.260971,1.473719 1.473719,1.688636 0.168863,0.0307 0.368429,0.0307 1.089938,0 1.61188,-0.951777 0.260971,-0.491239 0.260971,-1.135991 0,-1.12064 -0.828967,-1.7039873 -0.445186,-0.3223759 -1.013181,-0.3223759 -0.828967,0 -1.443016,0.6908052 -0.06141,0.07676 -0.138161,0.168864 L 82.243228,9.8053814 Z" id="path4364" inkscapeConnectorCurvature="0"></path>
    </g>
    <g id="text4297">
      <path d="m 8.4905491,85.774007 1.0592352,-5.925576 5.1273127,0 0,1.918904 -3.592189,0 -0.36843,2.087768 q 0.767562,-0.322376 1.458367,-0.322376 1.719339,0 2.763223,1.320206 0.828966,1.059236 0.828966,2.548305 0,1.8575 -1.289503,3.024193 -1.059236,0.967128 -2.563657,0.967128 -1.842148,0 -3.039544,-1.36626 Q 8.843627,89.980249 8.797574,89.934189 8.0300121,88.997767 7.9686072,87.80037 l 2.0417138,0 q 0.260971,1.473719 1.473719,1.688636 0.168863,0.0307 0.368429,0.0307 1.089938,0 1.61188,-0.951777 0.260971,-0.491239 0.260971,-1.135991 0,-1.12064 -0.828967,-1.703987 -0.445185,-0.322376 -1.013181,-0.322376 -0.828967,0 -1.443016,0.690805 -0.06141,0.07676 -0.138161,0.168864 l -1.8114459,-0.49124 z" id="path4331" inkscapeConnectorCurvature="0"></path>
    </g>
    <g id="text4301">
      <path d="m 36.49512,13.826511 0,-6.120962 -0.927116,0 0,-1.2461243 2.252992,0 0,7.3670863 -1.325876,0 z" id="path4361" inkscapeConnectorCurvature="0"></path>
    </g>
    <g id="text4305">
      <path d="m 46.663041,13.826511 0,-1.166372 2.621845,-2.482279 q 0.807489,-0.847365 0.847365,-1.4754116 0,-0.6679226 -0.508419,-0.9968994 -0.249225,-0.1595039 -0.558264,-0.1595039 -0.697829,0 -0.996899,0.6679226 -0.149535,0.3389458 -0.149535,0.7875505 l -1.305938,0 q 0,-0.9669924 0.388791,-1.58507 0.508418,-0.8174576 1.515287,-1.0367754 0.269163,-0.049845 0.538325,-0.049845 1.126497,0 1.834295,0.8174575 0.568233,0.6579536 0.568233,1.5751011 0,0.7775815 -0.438636,1.4155976 -0.279132,0.438635 -0.98693,1.076651 l -1.505318,1.365752 2.900977,0 0,1.246124 -4.765179,0 z" id="path4358" inkscapeConnectorCurvature="0"></path>
    </g>
    <g id="text4309">
      <path d="m 60.569332,10.277549 0,-1.2760308 q 0.49845,-0.00997 0.707799,-0.09969 0.428667,-0.1794419 0.428667,-0.6579536 0,-0.4785118 -0.378822,-0.6479847 -0.129597,-0.049845 -0.269163,-0.049845 -0.528357,0 -0.618078,0.6679226 l -1.345814,0 q 0.05981,-0.7476746 0.39876,-1.1564033 0.03988,-0.049845 0.07975,-0.09969 0.578201,-0.6280466 1.475411,-0.6280466 0.98693,0 1.565132,0.7277366 0.418698,0.5383256 0.418698,1.2560932 0,0.8174575 -0.618078,1.2660623 1.146434,0.5084193 1.146434,1.9040783 0,1.18631 -0.847364,1.904078 -0.677892,0.568232 -1.624946,0.568232 -1.236155,0 -1.963892,-0.867302 -0.528357,-0.618078 -0.578202,-1.495349 l 1.335846,0 q 0.09969,0.777581 0.707798,1.046744 0.229287,0.09969 0.488481,0.09969 0.657953,0 0.98693,-0.558264 0.169473,-0.2891 0.169473,-0.667922 0,-0.767613 -0.68786,-1.086621 -0.328977,-0.149535 -0.757644,-0.149535 l -0.219318,0 z" id="path4355" inkscapeConnectorCurvature="0"></path>
    </g>
    <g id="text4313">
      <path d="m 70.732262,11.643302 3.389458,-5.1838773 1.116527,0 0,5.0742183 0.777582,0 0,1.18631 -0.777582,0 0,1.106558 -1.325876,0 0,-1.106558 -3.180109,0 0,-1.076651 z m 3.180109,-0.109659 0,-2.8411636 -1.834295,2.8411636 1.834295,0 z" id="path4352" inkscapeConnectorCurvature="0"></path>
    </g>
    <g id="text4317">
      <path d="m 9.5897169,74.909899 3.3894581,-5.183877 1.116527,0 0,5.074218 0.777582,0 0,1.186311 -0.777582,0 0,1.106558 -1.325876,0 0,-1.106558 -3.1801091,0 0,-1.076652 z m 3.1801091,-0.109659 0,-2.841163 -1.834295,2.841163 1.834295,0 z" id="path4327" inkscapeConnectorCurvature="0"></path>
    </g>
    <g id="text4321">
      <path d="m 11.748004,61.312648 0,-1.276031 q 0.49845,-0.01 0.707799,-0.09969 0.428666,-0.179442 0.428666,-0.657953 0,-0.478512 -0.378821,-0.647985 -0.129597,-0.04984 -0.269163,-0.04984 -0.528357,0 -0.618078,0.667923 l -1.345814,0 q 0.05981,-0.747675 0.39876,-1.156404 0.03988,-0.04985 0.07975,-0.09969 0.578201,-0.628046 1.475411,-0.628046 0.98693,0 1.565132,0.727736 0.418698,0.538326 0.418698,1.256094 0,0.817457 -0.618078,1.266062 1.146434,0.508419 1.146434,1.904078 0,1.18631 -0.847364,1.904078 -0.677892,0.568232 -1.624946,0.568232 -1.236156,0 -1.963892,-0.867302 -0.5283568,-0.618078 -0.5782018,-1.495349 l 1.3358448,0 q 0.09969,0.777581 0.707799,1.046744 0.229287,0.09969 0.488481,0.09969 0.657953,0 0.98693,-0.558264 0.169473,-0.2891 0.169473,-0.667922 0,-0.767613 -0.687861,-1.086621 -0.328976,-0.149535 -0.757643,-0.149535 l -0.219318,0 z" id="path4323" inkscapeConnectorCurvature="0"></path>
    </g>
    <g id="text4325">
      <path d="m 9.8588797,52.674335 0,-1.166372 2.6218453,-2.482279 q 0.807489,-0.847365 0.847365,-1.475412 0,-0.667922 -0.508419,-0.996899 -0.249225,-0.159504 -0.558264,-0.159504 -0.697829,0 -0.996899,0.667923 -0.149535,0.338946 -0.149535,0.78755 l -1.3059382,0 q 0,-0.966992 0.3887912,-1.58507 0.508418,-0.817457 1.515287,-1.036775 0.269162,-0.04984 0.538325,-0.04984 1.126497,0 1.834295,0.817457 0.568233,0.657954 0.568233,1.575101 0,0.777582 -0.438636,1.415598 -0.279132,0.438635 -0.98693,1.076651 l -1.505318,1.365752 2.900977,0 0,1.246124 -4.7651793,0 z" id="path4319" inkscapeConnectorCurvature="0"></path>
    </g>
    <g id="text4329">
      <path d="m 12.032121,40.378033 0,-6.120963 -0.927117,0 0,-1.246124 2.252993,0 0,7.367087 -1.325876,0 z" id="path4316" inkscapeConnectorCurvature="0"></path>
    </g>
    <g id="text4333">
      <path d="m 141.25768,15.224367 0,-9.4256578 -1.42767,0 0,-1.9189043 3.46938,0 0,11.3445621 -2.04171,0 z" id="path4347" inkscapeConnectorCurvature="0"></path>
      <path d="m 153.726,7.4719938 0,3.9606182 q 0,1.581177 -0.72151,2.594359 -0.99783,1.396962 -2.97814,1.396962 -2.08777,0 -3.1777,-1.443016 -0.72151,-0.982479 -0.72151,-2.548305 l 0,-3.8531596 q 0,-2.225929 1.51977,-3.2698129 0.95178,-0.6294007 2.28733,-0.6294007 2.08777,0 3.1163,1.4583673 0.67546,0.9517766 0.67546,2.3333877 z m -5.55715,0.1074586 0,3.7917546 q 0,1.934256 1.44302,2.149173 0.16886,0.0307 0.35308,0.0307 0.92107,0 1.3509,-0.629401 0.36843,-0.49124 0.36843,-1.504421 l 0,-3.8378086 q 0,-1.6579333 -1.22809,-1.964958 l -0.49124,-0.061405 -0.0154,0 q -1.22809,0 -1.64258,1.1052889 l -0.10746,0.521942 -0.0307,0.3991321 z" id="path4349" inkscapeConnectorCurvature="0"></path>
    </g>
    <g id="text4337">
      <path d="m 202.5435,15.224367 0,-9.4256578 -1.42766,0 0,-1.9189043 3.46938,0 0,11.3445621 -2.04172,0 z" id="path4341" inkscapeConnectorCurvature="0"></path>
      <path d="m 207.47869,9.8053814 1.05923,-5.9255765 5.12731,0 0,1.9189043 -3.59219,0 -0.36843,2.0877679 q 0.76757,-0.3223759 1.45837,-0.3223759 1.71934,0 2.76322,1.3202061 0.82897,1.0592352 0.82897,2.5483047 0,1.8575 -1.2895,3.024193 -1.05924,0.967128 -2.56366,0.967128 -1.84215,0 -3.03954,-1.36626 -0.0307,-0.04605 -0.0768,-0.09211 -0.76756,-0.936425 -0.82897,-2.133822 l 2.04172,0 q 0.26097,1.473719 1.47372,1.688636 0.16886,0.0307 0.36843,0.0307 1.08993,0 1.61188,-0.951777 0.26097,-0.491239 0.26097,-1.135991 0,-1.12064 -0.82897,-1.7039873 -0.44519,-0.3223759 -1.01318,-0.3223759 -0.82897,0 -1.44302,0.6908052 -0.0614,0.07676 -0.13816,0.168864 l -1.81144,-0.4912396 z" id="path4343" inkscapeConnectorCurvature="0"></path>
    </g>
    <g id="text4341">
      <path d="m 260.75244,15.224367 0,-1.796094 4.03737,-3.8224577 q 1.24345,-1.3048549 1.30486,-2.2719827 0,-1.0285327 -0.78291,-1.5351234 -0.38379,-0.2456198 -0.85967,-0.2456198 -1.07459,0 -1.53513,1.0285328 -0.23027,0.5219419 -0.23027,1.2127475 l -2.01101,0 q 0,-1.4890698 0.5987,-2.4408463 0.78291,-1.2588012 2.33339,-1.5965284 0.41448,-0.076756 0.82896,-0.076756 1.73469,0 2.82463,1.2588013 0.87502,1.0131814 0.87502,2.425495 0,1.1973963 -0.67545,2.1798753 -0.42984,0.6754544 -1.51977,1.6579334 l -2.31804,2.103119 4.46721,0 0,1.918904 -7.33789,0 z" id="path4335" inkscapeConnectorCurvature="0"></path>
      <path d="m 276.78824,7.4719938 0,3.9606182 q 0,1.581177 -0.72151,2.594359 -0.99783,1.396962 -2.97814,1.396962 -2.08776,0 -3.1777,-1.443016 -0.72151,-0.982479 -0.72151,-2.548305 l 0,-3.8531596 q 0,-2.225929 1.51977,-3.2698129 0.95178,-0.6294007 2.28734,-0.6294007 2.08777,0 3.1163,1.4583673 0.67545,0.9517766 0.67545,2.3333877 z m -5.55714,0.1074586 0,3.7917546 q 0,1.934256 1.44301,2.149173 0.16886,0.0307 0.35308,0.0307 0.92107,0 1.35091,-0.629401 0.36843,-0.49124 0.36843,-1.504421 l 0,-3.8378086 q 0,-1.6579333 -1.2281,-1.964958 l -0.49124,-0.061405 -0.0154,0 q -1.2281,0 -1.64258,1.1052889 l -0.10746,0.521942 -0.0307,0.3991321 z" id="path4337" inkscapeConnectorCurvature="0"></path>
    </g>
    <path d="m 29.654247,146.77486 -10.37611,0" id="path4256" inkscapeConnectorCurvature="0"></path>
    <path d="m 26.986577,122.31499 -5.03927,0" id="path4258" inkscapeConnectorCurvature="0"></path>
    <path d="m 26.986577,134.54493 -5.03927,0" id="path4260" inkscapeConnectorCurvature="0"></path>
    <path d="m 26.986577,146.77486 -5.03927,0" id="path4262" inkscapeConnectorCurvature="0"></path>
    <path d="m 26.986577,159.00629 -5.03927,0" id="path4264" inkscapeConnectorCurvature="0"></path>
    <path d="m 26.986577,171.23623 -5.03927,0" id="path4266" inkscapeConnectorCurvature="0"></path>
    <g id="text4268">
      <path d="m 4.3986671,152.34737 0,-9.42566 -1.4276648,0 0,-1.91891 3.469379,0 0,11.34457 -2.0417142,0 z" id="path4311" inkscapeConnectorCurvature="0"></path>
      <path d="m 16.866988,144.59499 0,3.96062 q 0,1.58118 -0.721508,2.59436 -0.99783,1.39696 -2.978139,1.39696 -2.087768,0 -3.1777059,-1.44301 -0.7215081,-0.98248 -0.7215081,-2.54831 l 0,-3.85316 q 0,-2.22593 1.519772,-3.26981 0.951777,-0.6294 2.287334,-0.6294 2.087768,0 3.116301,1.45837 0.675454,0.95177 0.675454,2.33338 z m -5.557147,0.10746 0,3.79176 q 0,1.93425 1.443016,2.14917 0.168864,0.0307 0.353079,0.0307 0.921074,0 1.350908,-0.6294 0.36843,-0.49124 0.36843,-1.50442 l 0,-3.83781 q 0,-1.65793 -1.228099,-1.96496 l -0.491239,-0.0614 -0.01535,0 q -1.228098,0 -1.642582,1.10529 l -0.107458,0.52194 -0.0307,0.39913 z" id="path4313" inkscapeConnectorCurvature="0"></path>
    </g>
    <g id="g4384" transform="translate(0,-24.463002)">
      <path d="m 30.395187,199.63487 -5.92899,16.60125 -5.92899,-16.60125 5.92899,6.64018" id="path24" inkscapeConnectorCurvature="0"></path>
      <g transform="translate(0,-99.512451)" id="text4463">
        <path inkscapeConnectorCurvature="0" id="path4382" d="m 37.103971,305.78751 -1.2,0 -2.85,6.435 -0.6,-6.435 -1.23,0 0.975,8.055 -0.405,0.81 c -0.405,0.795 -0.585,1.005 -1.05,1.005 -0.225,0 -0.42,-0.045 -0.63,-0.135 l -0.21,1.2 0.09,0.03 c 0.195,0.075 0.255,0.09 0.435,0.09 1.26,0 1.515,-0.285 3.015,-3.36 l 3.66,-7.695 z"></path>
      </g>
    </g>
  </symbol>
</svg>